<?xml version="1.0" encoding="UTF-8"?><svg id="Layer_1" xmlns="http://www.w3.org/2000/svg" viewBox="0 0 244.98 319.98"><g isolation="isolate"><g id="Layer_1-2"><g id="Main-Logo"><g id="Top_lid" mix-blend-mode="color-dodge" opacity=".99"><ellipse cx="122.15" cy="47.25" rx="122" ry="46" fill="#231f20"/><path d="M0,47.25c0-2.92.76-5.82,2.04-8.43s3-5.01,4.99-7.12c3.97-4.26,8.81-7.59,13.81-10.54,10.11-5.76,21.14-9.72,32.32-12.83,11.21-3.06,22.67-5.21,34.22-6.51C98.92.48,110.54-.05,122.15,0c23.21.27,46.42,2.99,68.89,8.75,5.62,1.45,11.14,3.23,16.6,5.2,5.45,1.99,10.79,4.3,15.9,7.1,2.52,1.44,5.03,2.94,7.38,4.67,2.4,1.66,4.62,3.59,6.68,5.69,2.06,2.1,3.83,4.52,5.18,7.17,1.34,2.66,2.17,5.64,2.2,8.67.02,3.04-.74,6.05-2.03,8.75-1.31,2.7-3.04,5.19-5.07,7.35-4.05,4.36-8.94,7.76-14.01,10.68-10.24,5.73-21.34,9.62-32.59,12.58-22.56,5.84-45.88,8.21-69.11,8.24-11.62-.09-23.25-.64-34.79-2.07-11.53-1.41-23.01-3.47-34.21-6.57-5.61-1.53-11.14-3.35-16.56-5.44-5.42-2.1-10.72-4.52-15.76-7.41-4.99-2.95-9.84-6.28-13.81-10.55-2-2.11-3.71-4.51-4.99-7.12C.78,53.08.02,50.18.02,47.26h-.02ZM.3,47.25c.02,2.88.78,5.71,2.06,8.27,1.29,2.56,2.97,4.93,4.99,6.98,2.02,2.04,4.19,3.94,6.56,5.58,1.15.87,2.38,1.61,3.59,2.39,1.22.76,2.5,1.44,3.74,2.15,10.19,5.39,21.23,8.97,32.41,11.66,11.21,2.62,22.59,4.5,34.04,5.65,5.72.59,11.47.99,17.21,1.31,5.75.3,11.5.39,17.26.41,5.75-.05,11.51-.14,17.26-.47,5.74-.33,11.48-.75,17.2-1.38,11.44-1.22,22.81-3.13,33.95-5.92,5.57-1.39,11.07-3.07,16.46-5.01,5.39-1.95,10.66-4.2,15.68-6.92,2.48-1.4,4.94-2.85,7.22-4.53,2.34-1.61,4.48-3.47,6.46-5.47,1.98-2,3.64-4.29,4.9-6.75,1.25-2.47,2.01-5.18,2.05-7.95.02-2.76-.68-5.51-1.88-8.03-1.22-2.51-2.84-4.86-4.8-6.93-3.87-4.18-8.65-7.49-13.63-10.32-10.07-5.58-21.06-9.41-32.24-12.21-5.6-1.4-11.25-2.58-16.93-3.55-5.69-.96-11.42-1.65-17.16-2.24-11.48-1.15-23.02-1.56-34.54-1.47-11.52.12-23.03.73-34.48,1.95-2.86.3-5.72.66-8.57,1.05l-4.28.59-4.26.68c-5.67.97-11.33,2.05-16.93,3.39-11.18,2.71-22.22,6.3-32.41,11.69-1.25.72-2.52,1.39-3.74,2.15-1.21.78-2.44,1.53-3.59,2.4-2.37,1.64-4.54,3.54-6.56,5.59-2.02,2.05-3.7,4.43-4.98,6.99-1.27,2.57-2.03,5.4-2.05,8.28h0Z" fill="#fff"/></g><ellipse id="Botton_lid" cx="122.15" cy="273.98" rx="122" ry="46" fill="#231f20"/><g isolation="isolate"><g isolation="isolate"><path d="M34.86,163.09h20.01c7.52,0,23.39.76,23.39,12.7,0,4.21-2,8.07-7.52,10v.14c7.25,2.69,8.9,7.38,8.9,11.87,0,13.18-14.08,15.25-23.81,15.25h-20.98v-49.96ZM56.18,183.37c2.62,0,3.86-1.38,3.86-3.11s-1.31-3.1-3.86-3.1h-.76v6.21h.76ZM56.32,199.66c3.24,0,4.76-1.73,4.76-3.86s-1.59-3.86-4.76-3.86h-.9v7.73h.9Z" fill="#231f20"/><path d="M84.05,163.09h35.95v16.7h-15.39v2.69h12.42v11.87h-12.42v2.83h16.35v15.87h-36.92v-49.96Z" fill="#231f20"/><path d="M126.07,163.09h35.95v16.7h-15.39v2.69h12.42v11.87h-12.42v2.83h16.35v15.87h-36.92v-49.96Z" fill="#231f20"/><path d="M168.09,163.09h20.49c10.28,0,24.29,2.55,24.29,15.87,0,5.38-2.55,9.25-6.28,11.87l11.38,22.22h-21.6l-7.45-16.42h-.28v16.42h-20.56v-49.96ZM190.17,185.17c3.24,0,4.69-1.73,4.69-3.86s-1.52-3.79-4.69-3.79h-1.52v7.66h1.52Z" fill="#231f20"/></g></g><g isolation="isolate"><g isolation="isolate"><path d="M46.58,167.3c-8.48,0-17.34-3.2-17.34-12.72,0-1.04.28-2.54.66-3.68-5.56-1.32-9.9-5-9.9-10.84v-1.22l2.17-41.38c.38-8.11,2.83-11.5,12.16-11.5h14.8c14.33,0,24.98,6.5,24.98,21.77,0,6.22-4.71,13.2-8.86,16.02,5.47,3.68,9.05,10.93,9.05,17.91,0,15.17-13.01,25.64-27.71,25.64ZM59.69,123.66v-.38c6.31-3.58,10.65-8.86,10.65-15.55,0-12.63-9.14-18.29-21.21-18.29h-14.8c-7.73,0-8.2,3.3-8.39,7.82l-1.98,41.75v.47c0,4.81,4.05,8.01,8.67,8.01,1.32,0,2.54-.09,3.77-.47l.19.19c-2.54,1.23-3.58,4.43-3.58,6.88,0,7.45,7.26,9.43,13.57,9.43,8.29,0,16.02-3.77,20.36-9.99,2.26-3.3,3.58-7.35,3.58-11.88,0-8.01-3.77-14.04-10.84-18ZM46.58,160.7c-4.05,0-10.74-1.23-10.74-7.16,0-3.21,2.36-6.03,6.5-6.03,3.02,0,5.47,1.98,5.47,5,0,1.23-.38,2.17-1.23,3.21v.38c9.33,0,13.86-5.28,13.86-14.42s-10.09-14.7-19.13-14.7h-1.51v11.12c0,4.24-2.36,6.6-6.41,6.6-3.3,0-6.69-2.17-6.69-5.75v-.38l2.07-41.38c.19-3.3,1.13-4.9,5.56-4.9h14.8c10.75,0,18.38,5.28,18.38,15.74,0,7.63-6.69,12.82-13.2,15.36v.38c6.5,2.26,13.38,8.67,13.38,17.91,0,11.78-9.8,19.04-21.11,19.04ZM47.43,101.04c-5.56,0-7.63,4.62-7.63,9.52v11.31c.75,0,1.51,0,2.26-.09,7.35-.94,13.1-5.84,13.1-12.06,0-5.75-3.02-8.67-7.73-8.67Z" fill="#231f20"/><path d="M84.75,151.28c-6.88,0-14.23-4.24-14.23-11.88l1.89-41.75c.28-6.69,5.47-11.97,12.25-11.97s11.97,5.28,12.25,11.97l1.89,41.75c0,7.73-6.98,11.88-14.04,11.88ZM93.14,97.84c0-5.28-4.43-8.39-8.48-8.39s-8.39,3.49-8.39,8.39l-1.98,41.09c0,6.13,6.13,8.58,10.46,8.58s10.27-2.07,10.27-8.58l-1.89-41.09ZM84.75,144.68c-3.2,0-7.63-1.7-7.63-5.47l1.88-41.28c.19-3.21,2.36-5.66,5.66-5.66s5.47,2.45,5.66,5.66l1.89,41.38c0,3.96-4.15,5.37-7.45,5.37Z" fill="#231f20"/><path d="M132.45,148.83c-2.54,0-5.18-.09-7.73-.19-2.64-.09-5.18-.19-7.82-.19-2.26,0-4.52.19-6.79.38-2.26.19-4.52.38-6.88.38-5,0-8.2-3.77-8.2-8.58,0-.57,0-1.51.09-1.98,1.13-8.01,1.79-16.02,1.79-24.13v-17.06c0-6.69,5-11.78,11.69-11.78s11.78,5.09,11.78,11.78v31.86h1.6c1.23-5.09,5.56-8.2,10.65-8.2,7.35,0,13.29,4.52,13.29,12.91,0,7.35-5.75,14.8-13.48,14.8ZM132.63,124.42c-2.64,0-5.37,1.22-6.79,3.68-1.04,1.79-1.13,3.2-1.13,5-1.51-.28-2.36-.28-3.77-.47-.85-.09-1.89-.19-2.73-.19-1.6,0-1.6-1.32-1.6-2.26v-32.71c0-4.62-3.39-8.01-8.01-8.01s-7.92,3.39-7.92,8.01v17.06c0,8.29-.66,16.5-1.79,24.7,0,.28-.09.47-.09.75,0,2.83.19,5.66,4.43,5.66,4.62,0,8.77-.94,13.38-.94,5.18,0,10.65.38,15.83.38,6.69,0,9.71-5.84,9.71-11.03,0-6.13-4.24-9.61-9.52-9.61ZM132.45,142.23c-5.18,0-10.37-.38-15.55-.38-7.82,0-9.24.94-13.48.94-1.79,0-1.79-1.79-1.79-2.83.75-6.13,1.88-10.75,1.88-26.2v-15.83c0-3.3,1.79-5.66,5.09-5.66s5.18,2.36,5.18,5.66v35.34c0,2.36,4.05,2.07,5.65,2.17,1.13.09,2.17.09,3.3.19,1.79.19,3.96.57,5.37,1.23l.28-.19c-.94-1.23-1.41-2.64-1.41-3.58,0-3.11,2.26-5.84,5.56-5.84,3.96,0,6.79,2.83,6.79,6.79s-2.64,8.2-6.88,8.2Z" fill="#231f20"/></g><g isolation="isolate"><path d="M180.7,148.83c-2.54,0-5.18-.09-7.73-.19-2.64-.09-5.18-.19-7.82-.19-2.26,0-4.52.19-6.79.38s-4.52.38-6.88.38c-5,0-8.2-3.77-8.2-8.58,0-.57,0-1.51.09-1.98,1.13-8.01,1.79-16.02,1.79-24.13v-17.06c0-6.69,5-11.78,11.69-11.78s11.78,5.09,11.78,11.78v31.86h1.6c1.23-5.09,5.56-8.2,10.65-8.2,7.35,0,13.29,4.52,13.29,12.91,0,7.35-5.75,14.8-13.48,14.8ZM180.89,124.42c-2.64,0-5.37,1.22-6.79,3.68-1.04,1.79-1.13,3.2-1.13,5-1.51-.28-2.36-.28-3.77-.47-.85-.09-1.88-.19-2.73-.19-1.6,0-1.6-1.32-1.6-2.26v-32.71c0-4.62-3.39-8.01-8.01-8.01s-7.92,3.39-7.92,8.01v17.06c0,8.29-.66,16.5-1.79,24.7,0,.28-.09.47-.09.75,0,2.83.19,5.66,4.43,5.66,4.62,0,8.77-.94,13.38-.94,5.18,0,10.65.38,15.83.38,6.69,0,9.71-5.84,9.71-11.03,0-6.13-4.24-9.61-9.52-9.61ZM180.7,142.23c-5.18,0-10.37-.38-15.55-.38-7.82,0-9.24.94-13.48.94-1.79,0-1.79-1.79-1.79-2.83.75-6.13,1.88-10.75,1.88-26.2v-15.83c0-3.3,1.79-5.66,5.09-5.66s5.18,2.36,5.18,5.66v35.34c0,2.36,4.05,2.07,5.66,2.17,1.13.09,2.17.09,3.3.19,1.79.19,3.96.57,5.37,1.23l.28-.19c-.94-1.23-1.41-2.64-1.41-3.58,0-3.11,2.26-5.84,5.56-5.84,3.96,0,6.79,2.83,6.79,6.79s-2.64,8.2-6.88,8.2Z" fill="#231f20"/></g><g isolation="isolate"><path d="M232.54,104.62c.19,1.32.28,2.64.28,3.86,0,11.12-8.11,16.5-14.8,19.23l.47,11.31c0,9.14-7.45,12.25-12.91,12.25s-12.72-3.02-12.72-12.16l.38-11.78c-6.41-2.73-14.33-7.92-14.33-18.85,0-1.32.19-2.64.47-3.86-1.51-1.7-2.73-4.05-2.73-7.07,0-9.24,9.52-11.88,15.55-11.88,4.43,0,10.37,1.51,13.67,5.37,3.3-3.86,9.33-5.37,13.67-5.37,5.84,0,15.74,2.64,15.74,11.97,0,3.02-1.23,5.37-2.73,6.97ZM219.53,89.45c-6.03,0-12.35,2.83-12.35,8.48v1.88c0,.75-.47,1.23-1.32,1.23-.66,0-1.23-.38-1.23-1.23v-1.88c0-5.47-6.22-8.48-12.44-8.48-5.84,0-11.78,2.64-11.78,8.11,0,2.73,1.51,4.62,3.2,5.84-.57,1.6-.94,3.39-.94,5.09,0,9.8,7.92,13.95,14.42,16.31l-.47,14.42c0,5.65,4.71,8.29,8.95,8.29s9.14-2.54,9.14-8.39l-.57-13.95c6.88-2.36,14.89-6.69,14.89-16.68,0-1.7-.19-3.49-.66-5.18,1.6-1.23,3.11-3.02,3.11-5.66,0-5.47-6.32-8.2-11.97-8.2ZM224.9,102.08c.94,2.07,1.32,4.24,1.32,6.41,0,8.86-7.63,12.44-14.99,14.61l.66,16.12c0,3.58-2.92,5.47-6.32,5.47-3.2,0-6.13-1.88-6.13-5.47l.47-16.4c-6.97-2.36-14.42-5.75-14.42-14.33,0-2.07.75-4.52,1.7-6.31-1.89-.75-3.96-2.36-3.96-4.62,0-3.96,5.94-5.28,8.95-5.28s9.61,1.6,9.61,5.66c0,2.45-3.21,3.96-5.18,4.81-4.05,1.7-5.28,3.39-5.28,6.5,0,6.22,6.69,8.67,14.14,8.67,6.31,0,14.61-2.45,14.61-8.2,0-8.58-10.09-6.5-10.09-11.78,0-4.15,6.41-5.66,9.52-5.66s9.14,1.41,9.14,5.37c0,2.07-1.98,3.68-3.77,4.43Z" fill="#231f20"/></g></g><ellipse cx="115.85" cy="41.05" rx="36" ry="14.44" fill="#fff"/><ellipse cx="115.67" cy="40.67" rx="33.18" ry="13" fill="#231f20"/><ellipse cx="98.96" cy="40.43" rx="16.92" ry="10.35" fill="#fff"/></g></g></g></svg>