<?xml version="1.0" encoding="UTF-8"?><svg xmlns="http://www.w3.org/2000/svg" viewBox="0 0 289 325.98"><g isolation="isolate"><g id="Layer_1"><g id="pink_Logo"><g id="Top_lid" mix-blend-mode="color-dodge" opacity=".99"><ellipse cx="135.01" cy="47.25" rx="122" ry="46" fill="#770737"/><path d="M12.86,47.25c0-2.92.76-5.82,2.04-8.43,1.28-2.61,3-5.01,4.99-7.12,3.97-4.26,8.82-7.59,13.81-10.54,10.11-5.76,21.14-9.72,32.32-12.83,11.21-3.06,22.67-5.21,34.22-6.51C111.78.48,123.4-.05,135.01,0c23.21.27,46.42,2.99,68.89,8.75,5.62,1.45,11.14,3.23,16.6,5.2,5.45,1.99,10.79,4.3,15.9,7.1,2.52,1.44,5.03,2.94,7.38,4.67,2.4,1.66,4.62,3.59,6.68,5.69,2.06,2.1,3.83,4.52,5.18,7.17,1.34,2.66,2.17,5.64,2.2,8.67.02,3.04-.74,6.05-2.03,8.75-1.31,2.7-3.04,5.19-5.07,7.35-4.05,4.36-8.94,7.76-14.01,10.68-10.24,5.73-21.34,9.62-32.59,12.58-22.56,5.84-45.88,8.21-69.11,8.24-11.62-.09-23.25-.64-34.79-2.07-11.53-1.41-23.01-3.47-34.21-6.57-5.61-1.53-11.14-3.35-16.56-5.44-5.42-2.1-10.72-4.52-15.76-7.41-4.99-2.95-9.84-6.28-13.81-10.55-2-2.11-3.71-4.51-4.99-7.12-1.27-2.61-2.03-5.51-2.03-8.43ZM13.16,47.25c.02,2.88.78,5.71,2.06,8.27,1.29,2.56,2.97,4.93,4.99,6.98,2.02,2.04,4.19,3.94,6.56,5.58,1.15.87,2.38,1.61,3.59,2.39,1.22.76,2.5,1.44,3.74,2.15,10.19,5.39,21.23,8.97,32.41,11.66,11.21,2.62,22.59,4.5,34.04,5.65,5.72.59,11.47.99,17.21,1.31,5.75.3,11.5.39,17.26.41,5.75-.05,11.51-.14,17.26-.47,5.74-.33,11.48-.75,17.2-1.38,11.44-1.22,22.81-3.13,33.95-5.92,5.57-1.39,11.07-3.07,16.46-5.01,5.39-1.95,10.66-4.2,15.68-6.92,2.48-1.4,4.94-2.85,7.22-4.53,2.34-1.61,4.48-3.47,6.46-5.47,1.98-2,3.64-4.29,4.9-6.75,1.25-2.47,2.01-5.18,2.05-7.95.02-2.76-.68-5.51-1.88-8.03-1.22-2.51-2.84-4.86-4.8-6.93-3.87-4.18-8.65-7.49-13.63-10.32-10.07-5.58-21.06-9.41-32.24-12.21-5.6-1.4-11.25-2.58-16.93-3.55-5.69-.96-11.42-1.65-17.16-2.24-11.48-1.15-23.02-1.56-34.54-1.47-11.52.12-23.03.73-34.48,1.95-2.86.3-5.72.66-8.57,1.05l-4.28.59-4.26.68c-5.67.97-11.33,2.05-16.93,3.39-11.18,2.71-22.22,6.3-32.41,11.69-1.25.72-2.52,1.39-3.74,2.15-1.21.78-2.44,1.53-3.59,2.4-2.37,1.64-4.54,3.54-6.56,5.59-2.02,2.05-3.7,4.43-4.98,6.99-1.27,2.57-2.03,5.4-2.05,8.28Z" fill="#fff"/></g><ellipse id="Botton_lid" cx="134.01" cy="279.98" rx="122" ry="46" fill="#770737"/><rect x="25" y="120.59" width="222" height="120" fill="none"/><path d="M46.71,168.09h20.01c7.52,0,23.39.76,23.39,12.7,0,4.21-2,8.07-7.52,10v.14c7.25,2.69,8.9,7.38,8.9,11.87,0,13.18-14.08,15.25-23.81,15.25h-20.98v-49.96ZM68.04,188.37c2.62,0,3.86-1.38,3.86-3.1s-1.31-3.11-3.86-3.11h-.76v6.21h.76ZM68.17,204.66c3.24,0,4.76-1.72,4.76-3.86s-1.59-3.86-4.76-3.86h-.9v7.73h.9Z" fill="#770737"/><path d="M95.7,168.09h35.95v16.7h-15.39v2.69h12.42v11.87h-12.42v2.83h16.35v15.87h-36.92v-49.96Z" fill="#770737"/><path d="M137.52,168.09h35.95v16.7h-15.39v2.69h12.42v11.87h-12.42v2.83h16.35v15.87h-36.92v-49.96Z" fill="#770737"/><path d="M179.33,168.09h20.49c10.28,0,24.29,2.55,24.29,15.87,0,5.38-2.55,9.25-6.28,11.87l11.38,22.22h-21.6l-7.45-16.42h-.28v16.42h-20.56v-49.96ZM201.41,190.17c3.24,0,4.69-1.72,4.69-3.86s-1.52-3.79-4.69-3.79h-1.52v7.66h1.52Z" fill="#770737"/><g mix-blend-mode="color-dodge"><rect y="90.59" width="289" height="93" fill="none"/><path d="M63.45,172.3c-8.48,0-17.34-3.2-17.34-12.72,0-1.04.28-2.54.66-3.68-5.56-1.32-9.9-5-9.9-10.84v-1.23l2.17-41.38c.38-8.11,2.83-11.5,12.16-11.5h14.8c14.33,0,24.98,6.5,24.98,21.77,0,6.22-4.71,13.2-8.86,16.02,5.47,3.68,9.05,10.93,9.05,17.91,0,15.17-13.01,25.64-27.71,25.64ZM71.18,128.76v-.38c6.5-2.54,13.2-7.73,13.2-15.36,0-10.46-7.63-15.74-18.38-15.74h-14.8c-4.43,0-5.37,1.6-5.56,4.9l-2.07,41.38v.38c0,3.58,3.39,5.75,6.69,5.75,4.05,0,6.41-2.36,6.41-6.6v-11.12h1.51c9.05,0,19.13,5.75,19.13,14.7s-4.52,14.42-13.86,14.42v-.38c.85-1.04,1.23-1.98,1.23-3.2,0-3.02-2.45-5-5.47-5-4.15,0-6.5,2.83-6.5,6.03,0,5.94,6.69,7.16,10.74,7.16,11.31,0,21.11-7.26,21.11-19.04,0-9.24-6.88-15.65-13.38-17.91ZM58.92,126.78c-.75.09-1.51.09-2.26.09v-11.31c0-4.9,2.07-9.52,7.63-9.52,4.71,0,7.73,2.92,7.73,8.67,0,6.22-5.75,11.12-13.1,12.06Z" fill="#770737"/><path d="M101.99,156.28c-6.88,0-14.23-4.24-14.23-11.88l1.89-41.75c.28-6.69,5.47-11.97,12.25-11.97s11.97,5.28,12.25,11.97l1.89,41.75c0,7.73-6.98,11.88-14.04,11.88ZM107.56,102.93c-.19-3.2-2.36-5.65-5.66-5.65s-5.47,2.45-5.66,5.65l-1.88,41.28c0,3.77,4.43,5.47,7.63,5.47s7.45-1.41,7.45-5.37l-1.89-41.38Z" fill="#770737"/><path d="M150.06,153.83c-2.54,0-5.18-.09-7.73-.19-2.64-.09-5.18-.19-7.82-.19-2.26,0-4.52.19-6.79.38-2.26.19-4.52.38-6.88.38-5,0-8.2-3.77-8.2-8.58,0-.57,0-1.51.09-1.98,1.13-8.01,1.79-16.02,1.79-24.13v-17.06c0-6.69,5-11.78,11.69-11.78s11.78,5.09,11.78,11.78v31.86h1.6c1.22-5.09,5.56-8.2,10.65-8.2,7.35,0,13.29,4.52,13.29,12.91,0,7.35-5.75,14.8-13.48,14.8ZM150.16,132.24c-3.3,0-5.56,2.73-5.56,5.84,0,.94.47,2.36,1.41,3.58l-.28.19c-1.41-.66-3.58-1.04-5.37-1.23-1.13-.09-2.17-.09-3.3-.19-1.6-.09-5.47.19-5.47-2.17v-35.35c0-3.3-2.07-5.65-5.37-5.65s-5.09,2.36-5.09,5.65v15.83c0,15.46-1.13,20.08-1.88,26.2,0,1.04,0,2.83,1.79,2.83,4.24,0,5.66-.94,13.48-.94,5.18,0,10.37.38,15.55.38,4.24,0,6.88-4.34,6.88-8.2s-2.83-6.79-6.79-6.79Z" fill="#770737"/><path d="M197.56,153.83c-2.54,0-5.18-.09-7.73-.19-2.64-.09-5.18-.19-7.82-.19-2.26,0-4.52.19-6.79.38-2.26.19-4.52.38-6.88.38-5,0-8.2-3.77-8.2-8.58,0-.57,0-1.51.09-1.98,1.13-8.01,1.79-16.02,1.79-24.13v-17.06c0-6.69,5-11.78,11.69-11.78s11.78,5.09,11.78,11.78v31.86h1.6c1.23-5.09,5.56-8.2,10.65-8.2,7.35,0,13.29,4.52,13.29,12.91,0,7.35-5.75,14.8-13.48,14.8ZM197.66,132.24c-3.3,0-5.56,2.73-5.56,5.84,0,.94.47,2.36,1.41,3.58l-.28.19c-1.41-.66-3.58-1.04-5.37-1.23-1.13-.09-2.17-.09-3.3-.19-1.6-.09-5.47.19-5.47-2.17v-35.35c0-3.3-2.07-5.65-5.37-5.65s-5.09,2.36-5.09,5.65v15.83c0,15.46-1.13,20.08-1.88,26.2,0,1.04,0,2.83,1.79,2.83,4.24,0,5.66-.94,13.48-.94,5.18,0,10.37.38,15.55.38,4.24,0,6.88-4.34,6.88-8.2s-2.83-6.79-6.79-6.79Z" fill="#770737"/><path d="M249.4,109.62c.19,1.32.28,2.64.28,3.86,0,11.12-8.11,16.49-14.8,19.23l.47,11.31c0,9.14-7.45,12.25-12.91,12.25s-12.72-3.02-12.72-12.16l.38-11.78c-6.41-2.73-14.33-7.92-14.33-18.85,0-1.32.19-2.64.47-3.86-1.51-1.7-2.73-4.05-2.73-7.07,0-9.24,9.52-11.88,15.55-11.88,4.43,0,10.37,1.51,13.67,5.37,3.3-3.86,9.33-5.37,13.67-5.37,5.84,0,15.74,2.64,15.74,11.97,0,3.02-1.22,5.37-2.73,6.98ZM236.4,97.28c-3.11,0-9.52,1.51-9.52,5.65,0,5.28,10.08,3.2,10.08,11.78,0,5.75-8.29,8.2-14.61,8.2-7.45,0-14.14-2.45-14.14-8.67,0-3.11,1.23-4.81,5.28-6.5,1.98-.85,5.18-2.36,5.18-4.81,0-4.05-6.5-5.65-9.61-5.65s-8.95,1.32-8.95,5.28c0,2.26,2.07,3.86,3.96,4.62-.94,1.79-1.7,4.24-1.7,6.31,0,8.58,7.45,11.97,14.42,14.33l-.47,16.4c0,3.58,2.92,5.47,6.13,5.47,3.39,0,6.32-1.89,6.32-5.47l-.66-16.12c7.35-2.17,14.99-5.75,14.99-14.61,0-2.17-.38-4.34-1.32-6.41,1.79-.75,3.77-2.36,3.77-4.43,0-3.96-6.13-5.37-9.14-5.37Z" fill="#770737"/></g><ellipse cx="132.71" cy="46.05" rx="36" ry="14.44" fill="#231f20"/><ellipse cx="132.53" cy="45.67" rx="33.18" ry="13" fill="#770737"/><ellipse cx="115.82" cy="45.43" rx="16.92" ry="10.35" fill="#231f20"/></g></g></g></svg>